<svg width="400" height="200" viewBox="0 0 400 200" xmlns="http://www.w3.org/2000/svg">
  <defs><linearGradient id="bg3" x1="0%" y1="0%" x2="100%" y2="100%"><stop offset="0%" style="stop-color:#0f1923"/><stop offset="100%" style="stop-color:#1a2332"/></linearGradient></defs>
  <rect width="400" height="200" fill="url(#bg3)"/>
  <circle cx="200" cy="90" r="75" fill="rgba(255,102,0,0.06)"/>
  <rect x="152" y="68" width="96" height="72" rx="8" fill="none" stroke="#ff6600" stroke-width="2.5"/>
  <rect x="173" y="56" width="54" height="16" rx="6" fill="none" stroke="#ff8533" stroke-width="2"/>
  <line x1="200" y1="68" x2="200" y2="140" stroke="rgba(255,102,0,0.3)" stroke-width="1.5"/>
  <line x1="152" y1="100" x2="248" y2="100" stroke="rgba(255,102,0,0.3)" stroke-width="1.5"/>
  <ellipse cx="310" cy="46" rx="22" ry="14" fill="rgba(255,102,0,0.15)" stroke="#ff8533" stroke-width="1.5"/>
  <ellipse cx="296" cy="52" rx="14" ry="10" fill="rgba(255,102,0,0.15)" stroke="#ff8533" stroke-width="1.5"/>
  <line x1="302" y1="62" x2="298" y2="72" stroke="#ff8533" stroke-width="1.5"/>
  <line x1="310" y1="62" x2="310" y2="74" stroke="#ff8533" stroke-width="1.5"/>
  <line x1="318" y1="62" x2="322" y2="72" stroke="#ff8533" stroke-width="1.5"/>
  <rect x="100" y="150" width="200" height="24" rx="4" fill="rgba(255,102,0,0.15)" stroke="rgba(255,102,0,0.3)" stroke-width="1"/>
  <text x="200" y="167" font-family="Poppins,sans-serif" font-size="12" font-weight="600" fill="#ff6600" text-anchor="middle">Smart Travel Packing</text>
  <rect x="30" y="180" width="58" height="16" rx="8" fill="rgba(255,102,0,0.12)"/>
  <text x="59" y="192" font-family="sans-serif" font-size="9" fill="#ff9500" text-anchor="middle">React.js</text>
  <rect x="96" y="180" width="56" height="16" rx="8" fill="rgba(255,102,0,0.12)"/>
  <text x="124" y="192" font-family="sans-serif" font-size="9" fill="#ff9500" text-anchor="middle">Node.js</text>
  <rect x="160" y="180" width="74" height="16" rx="8" fill="rgba(255,102,0,0.12)"/>
  <text x="197" y="192" font-family="sans-serif" font-size="9" fill="#ff9500" text-anchor="middle">Weather API</text>
  <rect x="242" y="180" width="60" height="16" rx="8" fill="rgba(255,102,0,0.12)"/>
  <text x="272" y="192" font-family="sans-serif" font-size="9" fill="#ff9500" text-anchor="middle">MongoDB</text>
</svg>